<svg width="17" height="17" viewBox="0 0 17 17" fill="none" xmlns="http://www.w3.org/2000/svg">
    <path d="M1.41675 6.37508C1.41675 5.03916 1.41675 4.37191 1.83183 3.95683C2.24691 3.54175 2.91416 3.54175 4.25008 3.54175H12.7501C14.086 3.54175 14.7532 3.54175 15.1683 3.95683C15.5834 4.37191 15.5834 5.03916 15.5834 6.37508C15.5834 6.70871 15.5834 6.87587 15.48 6.98C15.3759 7.08341 15.208 7.08341 14.8751 7.08341H2.12508C1.79146 7.08341 1.62429 7.08341 1.52016 6.98C1.41675 6.87587 1.41675 6.708 1.41675 6.37508ZM1.41675 12.7501C1.41675 14.086 1.41675 14.7532 1.83183 15.1683C2.24691 15.5834 2.91416 15.5834 4.25008 15.5834H12.7501C14.086 15.5834 14.7532 15.5834 15.1683 15.1683C15.5834 14.7532 15.5834 14.086 15.5834 12.7501V9.20841C15.5834 8.87479 15.5834 8.70762 15.48 8.6035C15.3759 8.50008 15.208 8.50008 14.8751 8.50008H2.12508C1.79146 8.50008 1.62429 8.50008 1.52016 8.6035C1.41675 8.70762 1.41675 8.8755 1.41675 9.20841V12.7501Z" fill="#545454"/>
    <path d="M4.9585 2.125V4.25M12.0418 2.125V4.25" stroke="#545454" stroke-width="2.08333" stroke-linecap="round"/>
</svg>
