<svg width="100" height="100" viewBox="0 0 100 100" fill="none" xmlns="http://www.w3.org/2000/svg">
    <g clip-path="url(#clip0_431_229)">
        <path d="M26.6663 50L46.6663 66.6667L73.333 33.3333M49.9997 96.6667C43.8713 96.6667 37.803 95.4596 32.1411 93.1144C26.4793 90.7691 21.3348 87.3317 17.0014 82.9983C12.668 78.6649 9.23052 73.5204 6.8853 67.8586C4.54008 62.1967 3.33301 56.1283 3.33301 50C3.33301 43.8716 4.54008 37.8033 6.8853 32.1414C9.23052 26.4796 12.668 21.3351 17.0014 17.0017C21.3348 12.6683 26.4793 9.23084 32.1411 6.88562C37.803 4.5404 43.8713 3.33333 49.9997 3.33333C62.3764 3.33333 74.2463 8.24998 82.998 17.0017C91.7497 25.7534 96.6663 37.6232 96.6663 50C96.6663 62.3768 91.7497 74.2466 82.998 82.9983C74.2463 91.75 62.3764 96.6667 49.9997 96.6667Z" stroke="white" stroke-width="6.66667"/>
    </g>
    <defs>
        <clipPath id="clip0_431_229">
            <rect width="100" height="100" fill="white"/>
        </clipPath>
    </defs>
</svg>
