<svg width="17" height="17" viewBox="0 0 17 17" fill="none" xmlns="http://www.w3.org/2000/svg">
    <g clip-path="url(#clip0_378_196)">
        <path d="M14.7977 1.421L14.8728 1.41675L14.9649 1.42241L15.0286 1.43375L15.1158 1.45854L15.1916 1.49112L15.2624 1.5315L15.3261 1.57896L15.3842 1.63208L15.4211 1.67387L15.4791 1.75604L15.516 1.82404C15.5493 1.89487 15.5705 1.96996 15.5797 2.04787L15.5833 2.12296C15.5833 2.17608 15.5776 2.2285 15.5663 2.27879L15.5415 2.36591L10.9146 15.1705C10.8269 15.3614 10.6863 15.5232 10.5094 15.6365C10.3325 15.7499 10.1267 15.8101 9.91661 15.8101C9.72736 15.8107 9.54119 15.7623 9.37621 15.6695C9.21124 15.5768 9.0731 15.4429 8.97523 15.281L8.92919 15.191L6.55486 10.4437L1.83027 8.08075C1.65546 8.0008 1.5047 7.87635 1.39307 7.71985C1.28145 7.56334 1.21287 7.38028 1.19419 7.18896L1.18994 7.08341C1.18994 6.68675 1.40315 6.32408 1.78565 6.113L1.88482 6.06341L14.6469 1.455L14.7219 1.43375L14.7977 1.421Z" fill="#545454"/>
    </g>
    <defs>
        <clipPath id="clip0_378_196">
            <rect width="17" height="17" fill="white"/>
        </clipPath>
    </defs>
</svg>
