<svg width="20" height="20" viewBox="0 0 20 20" fill="none" xmlns="http://www.w3.org/2000/svg">
    <path d="M9.375 6.53906C8.595 6.7524 8.125 7.35156 8.125 7.91656C8.125 8.48156 8.595 9.08073 9.375 9.29323V6.53906ZM10.625 10.7066V13.4599C11.405 13.2474 11.875 12.6482 11.875 12.0832C11.875 11.5182 11.405 10.9191 10.625 10.7066Z" fill="#545454"/>
    <path fill-rule="evenodd" clip-rule="evenodd" d="M18.3334 10.0001C18.3334 14.6026 14.6026 18.3334 10.0001 18.3334C5.39758 18.3334 1.66675 14.6026 1.66675 10.0001C1.66675 5.39758 5.39758 1.66675 10.0001 1.66675C14.6026 1.66675 18.3334 5.39758 18.3334 10.0001ZM10.0001 4.37508C10.1658 4.37508 10.3248 4.44093 10.442 4.55814C10.5592 4.67535 10.6251 4.83432 10.6251 5.00008V5.26425C11.9834 5.50758 13.1251 6.52841 13.1251 7.91675C13.1251 8.08251 13.0592 8.24148 12.942 8.35869C12.8248 8.4759 12.6658 8.54175 12.5001 8.54175C12.3343 8.54175 12.1754 8.4759 12.0581 8.35869C11.9409 8.24148 11.8751 8.08251 11.8751 7.91675C11.8751 7.35175 11.4051 6.75258 10.6251 6.53925V9.43092C11.9834 9.67425 13.1251 10.6951 13.1251 12.0834C13.1251 13.4717 11.9834 14.4926 10.6251 14.7359V15.0001C10.6251 15.1658 10.5592 15.3248 10.442 15.442C10.3248 15.5592 10.1658 15.6251 10.0001 15.6251C9.83432 15.6251 9.67535 15.5592 9.55814 15.442C9.44093 15.3248 9.37508 15.1658 9.37508 15.0001V14.7359C8.01675 14.4926 6.87508 13.4717 6.87508 12.0834C6.87508 11.9177 6.94093 11.7587 7.05814 11.6415C7.17535 11.5243 7.33432 11.4584 7.50008 11.4584C7.66584 11.4584 7.82481 11.5243 7.94202 11.6415C8.05923 11.7587 8.12508 11.9177 8.12508 12.0834C8.12508 12.6484 8.59508 13.2476 9.37508 13.4601V10.5692C8.01675 10.3259 6.87508 9.30508 6.87508 7.91675C6.87508 6.52841 8.01675 5.50758 9.37508 5.26425V5.00008C9.37508 4.83432 9.44093 4.67535 9.55814 4.55814C9.67535 4.44093 9.83432 4.37508 10.0001 4.37508Z" fill="#545454"/>
</svg>
