<svg xmlns="http://www.w3.org/2000/svg" width="30" height="30" viewBox="0 0 30 30" fill="none">
    <path d="M26.125 2.5H3.875C3.51033 2.5 3.16059 2.64487 2.90273 2.90273C2.64487 3.16059 2.5 3.51033 2.5 3.875V26.125C2.5 26.4897 2.64487 26.8394 2.90273 27.0973C3.16059 27.3551 3.51033 27.5 3.875 27.5H15.85V17.8125H12.6V14.0625H15.85V11.25C15.7827 10.5897 15.8606 9.92266 16.0784 9.29567C16.2962 8.66868 16.6485 8.09693 17.1106 7.62051C17.5727 7.1441 18.1335 6.77455 18.7535 6.5378C19.3736 6.30104 20.038 6.20281 20.7 6.25C21.6729 6.24401 22.6454 6.2941 23.6125 6.4V9.775H21.625C20.05 9.775 19.75 10.525 19.75 11.6125V14.025H23.5L23.0125 17.775H19.75V27.5H26.125C26.3056 27.5 26.4844 27.4644 26.6512 27.3953C26.818 27.3262 26.9696 27.225 27.0973 27.0973C27.225 26.9696 27.3262 26.818 27.3953 26.6512C27.4644 26.4844 27.5 26.3056 27.5 26.125V3.875C27.5 3.69443 27.4644 3.51563 27.3953 3.34881C27.3262 3.18199 27.225 3.03041 27.0973 2.90273C26.9696 2.77505 26.818 2.67377 26.6512 2.60467C26.4844 2.53557 26.3056 2.5 26.125 2.5Z" fill="#545454"/>
</svg>
