<svg xmlns="http://www.w3.org/2000/svg" width="70" height="70" viewBox="0 0 70 70" fill="none">
    <path d="M19.9079 63.4375H50.0927C52.7997 63.4375 54.953 61.2104 54.6618 58.6441C52.7819 42.1094 41.5628 42.3828 41.5628 35C41.5628 27.6172 52.9255 28.0273 54.6605 11.3559C54.9339 8.78828 52.7997 6.5625 50.0927 6.5625H19.9079C17.2009 6.5625 15.0722 8.78828 15.3401 11.3559C17.0751 28.0273 28.4378 27.4805 28.4378 35C28.4378 42.5195 17.2187 42.1094 15.3401 58.6441C15.0476 61.2104 17.2009 63.4375 19.9079 63.4375Z" stroke="white" stroke-width="1.875" stroke-linecap="round" stroke-linejoin="round"/>
    <path d="M46.9353 59.0625H23.123C20.9902 59.0625 20.3887 56.6016 21.8844 55.0758C25.5047 51.4062 32.8123 48.7785 32.8123 44.5703V30.625C32.8123 27.9111 27.617 25.8398 24.4027 21.4375C23.8723 20.7115 23.9256 19.6875 25.2736 19.6875H44.7875C45.9373 19.6875 46.1861 20.7033 45.6625 21.4307C42.4947 25.8398 37.1873 27.8975 37.1873 30.625V44.5703C37.1873 48.7443 44.8039 50.9961 48.1795 55.0799C49.5398 56.726 49.0641 59.0625 46.9353 59.0625Z" fill="white"/>
</svg>