<svg width="22" height="22" viewBox="0 0 22 22" fill="none" xmlns="http://www.w3.org/2000/svg">
    <g clip-path="url(#clip0_143_702)">
        <path fill-rule="evenodd" clip-rule="evenodd" d="M9.44812 14.3981C9.27622 14.5699 9.0431 14.6665 8.80004 14.6665C8.55697 14.6665 8.32385 14.5699 8.15195 14.3981L2.96637 9.2125C2.87882 9.12794 2.80899 9.02679 2.76094 8.91495C2.7129 8.80312 2.68762 8.68283 2.68656 8.56112C2.6855 8.4394 2.70869 8.3187 2.75478 8.20604C2.80088 8.09339 2.86894 7.99104 2.95501 7.90497C3.04108 7.8189 3.14342 7.75084 3.25608 7.70475C3.36873 7.65866 3.48944 7.63546 3.61116 7.63652C3.73287 7.63758 3.85315 7.66286 3.96499 7.71091C4.07683 7.75895 4.17798 7.82878 4.26254 7.91633L8.80004 12.4538L13.3375 7.91633C13.5104 7.74935 13.742 7.65696 13.9823 7.65905C14.2227 7.66114 14.4526 7.75754 14.6225 7.9275C14.7925 8.09746 14.8889 8.32737 14.891 8.56771C14.8931 8.80806 14.8007 9.03961 14.6337 9.2125L9.44812 14.3981Z" fill="white"/>
    </g>
    <defs>
        <clipPath id="clip0_143_702">
            <rect width="22" height="22" fill="white"/>
        </clipPath>
    </defs>
</svg>
