<svg width="25" height="25" viewBox="0 0 25 25" fill="none" xmlns="http://www.w3.org/2000/svg">
<g clip-path="url(#clip0_104_192)">
<path d="M12.4998 23.8056C12.9372 23.7955 13.357 23.631 13.6849 23.3413C14.0128 23.0515 14.2277 22.6551 14.2914 22.2222H10.6387C10.7043 22.6669 10.9292 23.0726 11.2715 23.3638C11.6139 23.6551 12.0504 23.8121 12.4998 23.8056Z" fill="black"/>
<path d="M22.5765 19.3264C21.9068 18.7294 21.3206 18.045 20.8334 17.2917C20.3017 16.2518 19.9829 15.1161 19.8959 13.9514V10.5208C19.8931 10.1041 19.856 9.68837 19.7848 9.27778C19.2382 9.16852 18.7129 8.97153 18.2293 8.69445C18.4136 9.28809 18.5073 9.90617 18.5071 10.5278V13.9583C18.5922 15.3792 18.983 16.7649 19.6529 18.0208C20.1323 18.7806 20.7012 19.48 21.3473 20.1042H3.56261C4.20873 19.48 4.77761 18.7806 5.25705 18.0208C5.92692 16.7649 6.31777 15.3792 6.40289 13.9583V10.5208C6.39923 9.71714 6.55414 8.92063 6.85875 8.17689C7.16336 7.43315 7.61167 6.7568 8.17804 6.18657C8.7444 5.61634 9.41768 5.16342 10.1593 4.85376C10.901 4.5441 11.6964 4.38376 12.5001 4.38194C13.6763 4.38289 14.8262 4.73073 15.8057 5.38195C15.6977 4.98541 15.6371 4.57747 15.6251 4.16667V3.72917C14.9 3.37247 14.121 3.13784 13.3196 3.03472V2.15972C13.3196 1.91384 13.2219 1.67804 13.048 1.50418C12.8742 1.33031 12.6383 1.23264 12.3925 1.23264C12.1466 1.23264 11.9108 1.33031 11.7369 1.50418C11.5631 1.67804 11.4654 1.91384 11.4654 2.15972V3.06944C9.67074 3.32261 8.02828 4.21649 6.84123 5.58607C5.65418 6.95564 5.0027 8.70843 5.00705 10.5208V13.9514C4.92008 15.1161 4.60134 16.2518 4.06955 17.2917C3.591 18.0433 3.01413 18.7276 2.35428 19.3264C2.2802 19.3915 2.22083 19.4716 2.18012 19.5614C2.13941 19.6512 2.11829 19.7486 2.11816 19.8472V20.7917C2.11816 20.9758 2.19133 21.1525 2.32156 21.2827C2.4518 21.4129 2.62843 21.4861 2.81261 21.4861H22.1182C22.3023 21.4861 22.479 21.4129 22.6092 21.2827C22.7394 21.1525 22.8126 20.9758 22.8126 20.7917V19.8472C22.8125 19.7486 22.7914 19.6512 22.7507 19.5614C22.7099 19.4716 22.6506 19.3915 22.5765 19.3264Z" fill="black"/>
<path d="M20.8336 7.63889C22.7512 7.63889 24.3058 6.08432 24.3058 4.16667C24.3058 2.24901 22.7512 0.694445 20.8336 0.694445C18.9159 0.694445 17.3613 2.24901 17.3613 4.16667C17.3613 6.08432 18.9159 7.63889 20.8336 7.63889Z" fill="black"/>
</g>
<defs>
<clipPath id="clip0_104_192">
<rect width="25" height="25" fill="white"/>
</clipPath>
</defs>
</svg>
