<svg width="140" height="26" viewBox="0 0 140 26" fill="none" xmlns="http://www.w3.org/2000/svg">
    <path d="M9.35 3.76C11.57 3.76 13.51 4.21 15.17 5.11C16.85 6.01 18.14 7.26 19.04 8.86C19.94 10.46 20.39 12.28 20.39 14.32C20.39 16.34 19.94 18.16 19.04 19.78C18.14 21.4 16.85 22.68 15.17 23.62C13.51 24.54 11.57 25 9.35 25H0.5V3.76H9.35ZM8.75 19.06C10.25 19.06 11.44 18.65 12.32 17.83C13.2 17.01 13.64 15.84 13.64 14.32C13.64 12.8 13.2 11.63 12.32 10.81C11.44 9.99 10.25 9.58 8.75 9.58H7.16V19.06H8.75ZM39.1749 16.39C39.1749 16.85 39.1449 17.29 39.0849 17.71H28.3749C28.4749 19.17 29.0849 19.9 30.2049 19.9C30.9249 19.9 31.4449 19.57 31.7649 18.91H38.8149C38.5749 20.11 38.0649 21.19 37.2849 22.15C36.5249 23.09 35.5549 23.84 34.3749 24.4C33.2149 24.94 31.9349 25.21 30.5349 25.21C28.8549 25.21 27.3549 24.86 26.0349 24.16C24.7349 23.46 23.7149 22.46 22.9749 21.16C22.2549 19.84 21.8949 18.3 21.8949 16.54C21.8949 14.78 22.2549 13.25 22.9749 11.95C23.7149 10.63 24.7349 9.62 26.0349 8.92C27.3549 8.22 28.8549 7.87 30.5349 7.87C32.2149 7.87 33.7049 8.22 35.0049 8.92C36.3249 9.6 37.3449 10.58 38.0649 11.86C38.8049 13.14 39.1749 14.65 39.1749 16.39ZM32.4249 14.8C32.4249 14.24 32.2449 13.82 31.8849 13.54C31.5249 13.24 31.0749 13.09 30.5349 13.09C29.3549 13.09 28.6649 13.66 28.4649 14.8H32.4249ZM48.8113 25.21C47.2113 25.21 45.7913 24.95 44.5513 24.43C43.3313 23.91 42.3613 23.19 41.6413 22.27C40.9213 21.35 40.5113 20.31 40.4113 19.15H46.8013C46.8813 19.65 47.0913 20.02 47.4313 20.26C47.7913 20.5 48.2413 20.62 48.7813 20.62C49.1213 20.62 49.3913 20.55 49.5913 20.41C49.7913 20.25 49.8913 20.06 49.8913 19.84C49.8913 19.46 49.6813 19.19 49.2613 19.03C48.8413 18.87 48.1313 18.69 47.1313 18.49C45.9113 18.25 44.9013 17.99 44.1013 17.71C43.3213 17.43 42.6313 16.95 42.0313 16.27C41.4513 15.59 41.1613 14.65 41.1613 13.45C41.1613 12.41 41.4313 11.47 41.9713 10.63C42.5313 9.77 43.3513 9.1 44.4313 8.62C45.5113 8.12 46.8213 7.87 48.3613 7.87C50.6413 7.87 52.4213 8.43 53.7013 9.55C55.0013 10.67 55.7813 12.13 56.0413 13.93H50.1313C50.0313 13.47 49.8213 13.12 49.5013 12.88C49.1813 12.62 48.7513 12.49 48.2113 12.49C47.8713 12.49 47.6113 12.56 47.4313 12.7C47.2513 12.82 47.1613 13.01 47.1613 13.27C47.1613 13.61 47.3713 13.87 47.7913 14.05C48.2113 14.21 48.8813 14.38 49.8013 14.56C51.0213 14.8 52.0513 15.07 52.8913 15.37C53.7313 15.67 54.4613 16.19 55.0813 16.93C55.7013 17.65 56.0113 18.65 56.0113 19.93C56.0113 20.93 55.7213 21.83 55.1413 22.63C54.5613 23.43 53.7213 24.06 52.6213 24.52C51.5413 24.98 50.2713 25.21 48.8113 25.21ZM69.1843 19.33V25H66.6643C62.0243 25 59.7043 22.69 59.7043 18.07V13.63H57.6043V8.08H59.7043V4H66.3643V8.08H69.1243V13.63H66.3643V18.19C66.3643 18.59 66.4543 18.88 66.6343 19.06C66.8343 19.24 67.1543 19.33 67.5943 19.33H69.1843ZM75.0807 6.73C73.9207 6.73 72.9907 6.42 72.2907 5.8C71.5907 5.18 71.2407 4.4 71.2407 3.46C71.2407 2.5 71.5907 1.71 72.2907 1.09C72.9907 0.449998 73.9207 0.129998 75.0807 0.129998C76.2207 0.129998 77.1407 0.449998 77.8407 1.09C78.5407 1.71 78.8907 2.5 78.8907 3.46C78.8907 4.4 78.5407 5.18 77.8407 5.8C77.1407 6.42 76.2207 6.73 75.0807 6.73ZM78.3807 8.08V25H71.7207V8.08H78.3807ZM93.2387 7.96C95.1787 7.96 96.6887 8.61 97.7687 9.91C98.8687 11.21 99.4187 12.97 99.4187 15.19V25H92.7887V16.03C92.7887 15.23 92.5687 14.6 92.1287 14.14C91.7087 13.66 91.1387 13.42 90.4187 13.42C89.6787 13.42 89.0987 13.66 88.6787 14.14C88.2587 14.6 88.0487 15.23 88.0487 16.03V25H81.3887V8.08H88.0487V10.66C88.5687 9.86 89.2587 9.21 90.1187 8.71C90.9987 8.21 92.0387 7.96 93.2387 7.96ZM118.687 16.39C118.687 16.85 118.657 17.29 118.597 17.71H107.887C107.987 19.17 108.597 19.9 109.717 19.9C110.437 19.9 110.957 19.57 111.277 18.91H118.327C118.087 20.11 117.577 21.19 116.797 22.15C116.037 23.09 115.067 23.84 113.887 24.4C112.727 24.94 111.447 25.21 110.047 25.21C108.367 25.21 106.867 24.86 105.547 24.16C104.247 23.46 103.227 22.46 102.487 21.16C101.767 19.84 101.407 18.3 101.407 16.54C101.407 14.78 101.767 13.25 102.487 11.95C103.227 10.63 104.247 9.62 105.547 8.92C106.867 8.22 108.367 7.87 110.047 7.87C111.727 7.87 113.217 8.22 114.517 8.92C115.837 9.6 116.857 10.58 117.577 11.86C118.317 13.14 118.687 14.65 118.687 16.39ZM111.937 14.8C111.937 14.24 111.757 13.82 111.397 13.54C111.037 13.24 110.587 13.09 110.047 13.09C108.867 13.09 108.177 13.66 107.977 14.8H111.937ZM131.893 25L129.043 21.19L126.913 25H119.593L125.263 16.09L119.293 8.08H126.733L129.583 11.92L131.743 8.08H139.063L133.213 16.78L139.333 25H131.893Z" fill="white"/>
</svg>
