<svg width="30" height="30" viewBox="0 0 40 40" fill="none" xmlns="http://www.w3.org/2000/svg">
    <path d="M34.8375 5.52875C35.0012 5.88375 35.2775 6.16375 35.6425 6.3225L37.1612 6.98125C37.2621 7.02538 37.3479 7.09796 37.4081 7.19009C37.4684 7.28222 37.5005 7.38992 37.5005 7.5C37.5005 7.61008 37.4684 7.71778 37.4081 7.80991C37.3479 7.90204 37.2621 7.97462 37.1612 8.01875L35.655 8.6775C35.2954 8.82944 35.0077 9.11354 34.8512 9.47125L33.6587 12.18C33.4462 12.6063 32.805 12.6063 32.5912 12.18L31.3987 9.47125C31.2386 9.11611 30.9521 8.8332 30.595 8.6775L29.0887 8.01875C28.9879 7.97462 28.9021 7.90204 28.8419 7.80991C28.7816 7.71778 28.7495 7.61008 28.7495 7.5C28.7495 7.38992 28.7816 7.28222 28.8419 7.19009C28.9021 7.09796 28.9879 7.02538 29.0887 6.98125L30.595 6.3225C30.9546 6.17056 31.2423 5.88646 31.3987 5.52875L32.5912 2.82C32.8037 2.39375 33.445 2.39375 33.6587 2.82L34.8375 5.52875ZM19.9787 6.45625C20.0959 6.70281 20.2997 6.89767 20.5512 7.00375L21.6313 7.45375C21.9562 7.6 21.9562 8.025 21.6313 8.17125L20.5512 8.62125C20.2968 8.72291 20.0917 8.91912 19.9787 9.16875L19.1337 11.0312C18.9775 11.3225 18.5212 11.3225 18.3662 11.0312L17.5212 9.16875C17.4045 8.92184 17.2006 8.72683 16.9487 8.62125L15.8687 8.17125C15.797 8.14262 15.7355 8.09313 15.6921 8.02918C15.6488 7.96523 15.6256 7.88975 15.6256 7.8125C15.6256 7.73525 15.6488 7.65977 15.6921 7.59582C15.7355 7.53187 15.797 7.48238 15.8687 7.45375L16.9487 7.00375C17.2032 6.90209 17.4083 6.70588 17.5212 6.45625L18.3662 4.59375C18.5225 4.3025 18.9788 4.3025 19.1337 4.59375L19.9787 6.45625ZM5 32.5L2.92125 34.5338C2.78742 34.6669 2.68122 34.8251 2.60875 34.9994C2.53628 35.1737 2.49898 35.3606 2.49898 35.5494C2.49898 35.7381 2.53628 35.925 2.60875 36.0993C2.68122 36.2736 2.78742 36.4319 2.92125 36.565L3.43375 37.0775C3.98375 37.6425 4.89625 37.6425 5.44625 37.065L7.5 35.0088L7.49625 35.005L25 17.5L27.0925 15.4163C27.6362 14.86 27.6362 13.8663 27.0925 13.3225L26.68 12.9087C26.125 12.3625 25 12.5 24.375 13.125L5 32.5ZM32.4375 20.3725C32.1797 20.2485 31.9755 20.0354 31.8625 19.7725L31.0062 17.745C30.8462 17.4187 30.3912 17.4187 30.2437 17.745L29.3875 19.7738C29.2744 20.0362 29.0702 20.2489 28.8125 20.3725L27.7412 20.8625C27.42 21.025 27.42 21.4875 27.7412 21.6375L28.8112 22.1275C29.0691 22.2515 29.2733 22.4646 29.3862 22.7275L30.2437 24.755C30.4037 25.0813 30.8587 25.0813 31.0062 24.755L31.8625 22.7275C31.9754 22.4646 32.1796 22.2514 32.4375 22.1275L33.5087 21.6375C33.83 21.475 33.83 21.0125 33.5087 20.8625L32.4375 20.3725ZM15 17.5C15.3315 17.5 15.6495 17.3683 15.8839 17.1339C16.1183 16.8995 16.25 16.5815 16.25 16.25C16.25 15.9185 16.1183 15.6005 15.8839 15.3661C15.6495 15.1317 15.3315 15 15 15C14.6685 15 14.3505 15.1317 14.1161 15.3661C13.8817 15.6005 13.75 15.9185 13.75 16.25C13.75 16.5815 13.8817 16.8995 14.1161 17.1339C14.3505 17.3683 14.6685 17.5 15 17.5ZM37.5 16.25C37.5 16.5815 37.3683 16.8995 37.1339 17.1339C36.8995 17.3683 36.5815 17.5 36.25 17.5C35.9185 17.5 35.6005 17.3683 35.3661 17.1339C35.1317 16.8995 35 16.5815 35 16.25C35 15.9185 35.1317 15.6005 35.3661 15.3661C35.6005 15.1317 35.9185 15 36.25 15C36.5815 15 36.8995 15.1317 37.1339 15.3661C37.3683 15.6005 37.5 15.9185 37.5 16.25ZM23.75 5C24.0815 5 24.3995 4.8683 24.6339 4.63388C24.8683 4.39946 25 4.08152 25 3.75C25 3.41848 24.8683 3.10054 24.6339 2.86612C24.3995 2.6317 24.0815 2.5 23.75 2.5C23.4185 2.5 23.1005 2.6317 22.8661 2.86612C22.6317 3.10054 22.5 3.41848 22.5 3.75C22.5 4.08152 22.6317 4.39946 22.8661 4.63388C23.1005 4.8683 23.4185 5 23.75 5ZM25 26.25C25 26.5815 24.8683 26.8995 24.6339 27.1339C24.3995 27.3683 24.0815 27.5 23.75 27.5C23.4185 27.5 23.1005 27.3683 22.8661 27.1339C22.6317 26.8995 22.5 26.5815 22.5 26.25C22.5 25.9185 22.6317 25.6005 22.8661 25.3661C23.1005 25.1317 23.4185 25 23.75 25C24.0815 25 24.3995 25.1317 24.6339 25.3661C24.8683 25.6005 25 25.9185 25 26.25Z" fill="#545454"/>
</svg>
