<svg xmlns="http://www.w3.org/2000/svg" width="35" height="35" viewBox="0 0 35 35" fill="none">
    <path d="M14.5834 21.875L22.1522 17.5L14.5834 13.125V21.875ZM31.4417 10.4562C31.6313 11.1416 31.7626 12.0604 31.8501 13.227C31.9522 14.3937 31.9959 15.4 31.9959 16.275L32.0834 17.5C32.0834 20.6937 31.8501 23.0416 31.4417 24.5437C31.0772 25.8562 30.2313 26.702 28.9188 27.0666C28.2334 27.2562 26.9792 27.3875 25.0542 27.475C23.1584 27.577 21.423 27.6208 19.8188 27.6208L17.5001 27.7083C11.3897 27.7083 7.58341 27.475 6.08133 27.0666C4.76883 26.702 3.923 25.8562 3.55841 24.5437C3.36883 23.8583 3.23758 22.9395 3.15008 21.7729C3.048 20.6062 3.00425 19.6 3.00425 18.725L2.91675 17.5C2.91675 14.3062 3.15008 11.9583 3.55841 10.4562C3.923 9.14371 4.76883 8.29788 6.08133 7.93329C6.76675 7.74371 8.02091 7.61246 9.94591 7.52496C11.8417 7.42288 13.5772 7.37913 15.1813 7.37913L17.5001 7.29163C23.6105 7.29163 27.4167 7.52496 28.9188 7.93329C30.2313 8.29788 31.0772 9.14371 31.4417 10.4562Z" fill="#545454"/>
</svg>